{
    "asset" : {
        "generator" : "Khronos glTF Blender I/O v1.8.19",
        "version" : "2.0"
    },
    "scene" : 0,
    "scenes" : [
        {
            "name" : "Scene",
            "nodes" : [
                0
            ]
        }
    ],
    "nodes" : [
        {
            "mesh" : 0,
            "name" : "\u529e\u516c\u697c01"
        }
    ],
    "materials" : [
        {
            "doubleSided" : true,
            "name" : "Mat3d66-1003769-18-1220",
            "pbrMetallicRoughness" : {
                "baseColorTexture" : {
                    "index" : 0
                },
                "metallicFactor" : 0,
                "roughnessFactor" : 0.5
            }
        },
        {
            "doubleSided" : true,
            "name" : "Mat3d66-1003769-19-4337",
            "pbrMetallicRoughness" : {
                "baseColorTexture" : {
                    "index" : 1
                },
                "metallicFactor" : 0,
                "roughnessFactor" : 0.5
            }
        },
        {
            "doubleSided" : true,
            "name" : "Mat3d66-1003769-20-7468",
            "pbrMetallicRoughness" : {
                "baseColorFactor" : [
                    0.2509799897670746,
                    0.2980389893054962,
                    0.34902000427246094,
                    1
                ],
                "metallicFactor" : 0,
                "roughnessFactor" : 0.5
            }
        },
        {
            "doubleSided" : true,
            "name" : "Mat3d66-1003769-21-1424",
            "pbrMetallicRoughness" : {
                "baseColorTexture" : {
                    "index" : 2
                },
                "metallicFactor" : 0,
                "roughnessFactor" : 0.5
            }
        },
        {
            "doubleSided" : true,
            "name" : "Mat3d66-1003769-22-5476",
            "pbrMetallicRoughness" : {
                "baseColorTexture" : {
                    "index" : 3
                },
                "metallicFactor" : 0,
                "roughnessFactor" : 0.5
            }
        },
        {
            "alphaMode" : "BLEND",
            "doubleSided" : true,
            "name" : "Mat3d66-1003769-23-3507",
            "pbrMetallicRoughness" : {
                "baseColorFactor" : [
                    0.564706027507782,
                    0.7372549772262573,
                    0.8352940082550049,
                    0.8031495809555054
                ],
                "metallicFactor" : 0,
                "roughnessFactor" : 0.5
            }
        }
    ],
    "meshes" : [
        {
            "name" : "Obj3d66-1003769-17-899",
            "primitives" : [
                {
                    "attributes" : {
                        "POSITION" : 0,
                        "NORMAL" : 1,
                        "TEXCOORD_0" : 2
                    },
                    "indices" : 3,
                    "material" : 0
                },
                {
                    "attributes" : {
                        "POSITION" : 4,
                        "NORMAL" : 5,
                        "TEXCOORD_0" : 6
                    },
                    "indices" : 7,
                    "material" : 1
                },
                {
                    "attributes" : {
                        "POSITION" : 8,
                        "NORMAL" : 9,
                        "TEXCOORD_0" : 10
                    },
                    "indices" : 11,
                    "material" : 2
                },
                {
                    "attributes" : {
                        "POSITION" : 12,
                        "NORMAL" : 13,
                        "TEXCOORD_0" : 14
                    },
                    "indices" : 15,
                    "material" : 3
                },
                {
                    "attributes" : {
                        "POSITION" : 16,
                        "NORMAL" : 17,
                        "TEXCOORD_0" : 18
                    },
                    "indices" : 19,
                    "material" : 4
                },
                {
                    "attributes" : {
                        "POSITION" : 20,
                        "NORMAL" : 21,
                        "TEXCOORD_0" : 22
                    },
                    "indices" : 23,
                    "material" : 5
                }
            ]
        }
    ],
    "textures" : [
        {
            "sampler" : 0,
            "source" : 0
        },
        {
            "sampler" : 0,
            "source" : 1
        },
        {
            "sampler" : 0,
            "source" : 2
        },
        {
            "sampler" : 0,
            "source" : 3
        }
    ],
    "images" : [
        {
            "bufferView" : 4,
            "mimeType" : "image/jpeg",
            "name" : "Image_0"
        },
        {
            "bufferView" : 9,
            "mimeType" : "image/jpeg",
            "name" : "Image_1"
        },
        {
            "bufferView" : 18,
            "mimeType" : "image/jpeg",
            "name" : "Image_2"
        },
        {
            "bufferView" : 23,
            "mimeType" : "image/jpeg",
            "name" : "Image_3"
        }
    ],
    "accessors" : [
        {
            "bufferView" : 0,
            "componentType" : 5126,
            "count" : 52,
            "max" : [
                6.525387763977051,
                0.30005455017089844,
                12.860751152038574
            ],
            "min" : [
                -6.492605209350586,
                5.435943603515625e-05,
                8.569296836853027
            ],
            "type" : "VEC3"
        },
        {
            "bufferView" : 1,
            "componentType" : 5126,
            "count" : 52,
            "type" : "VEC3"
        },
        {
            "bufferView" : 2,
            "componentType" : 5126,
            "count" : 52,
            "type" : "VEC2"
        },
        {
            "bufferView" : 3,
            "componentType" : 5123,
            "count" : 72,
            "type" : "SCALAR"
        },
        {
            "bufferView" : 5,
            "componentType" : 5126,
            "count" : 1329,
            "max" : [
                32.9000129699707,
                22.57705307006836,
                8.89726734161377
            ],
            "min" : [
                -32.868778228759766,
                4.482269287109375e-05,
                -7.876126289367676
            ],
            "type" : "VEC3"
        },
        {
            "bufferView" : 6,
            "componentType" : 5126,
            "count" : 1329,
            "type" : "VEC3"
        },
        {
            "bufferView" : 7,
            "componentType" : 5126,
            "count" : 1329,
            "type" : "VEC2"
        },
        {
            "bufferView" : 8,
            "componentType" : 5123,
            "count" : 1956,
            "type" : "SCALAR"
        },
        {
            "bufferView" : 10,
            "componentType" : 5126,
            "count" : 9110,
            "max" : [
                33.004695892333984,
                21.00005340576172,
                12.689382553100586
            ],
            "min" : [
                -32.973480224609375,
                4.38690185546875e-05,
                -2.370743751525879
            ],
            "type" : "VEC3"
        },
        {
            "bufferView" : 11,
            "componentType" : 5126,
            "count" : 9110,
            "type" : "VEC3"
        },
        {
            "bufferView" : 12,
            "componentType" : 5126,
            "count" : 9110,
            "type" : "VEC2"
        },
        {
            "bufferView" : 13,
            "componentType" : 5123,
            "count" : 12504,
            "type" : "SCALAR"
        },
        {
            "bufferView" : 14,
            "componentType" : 5126,
            "count" : 589,
            "max" : [
                33.5,
                23.420970916748047,
                9.469297409057617
            ],
            "min" : [
                -33.46877670288086,
                4.1961669921875e-05,
                -3.5707292556762695
            ],
            "type" : "VEC3"
        },
        {
            "bufferView" : 15,
            "componentType" : 5126,
            "count" : 589,
            "type" : "VEC3"
        },
        {
            "bufferView" : 16,
            "componentType" : 5126,
            "count" : 589,
            "type" : "VEC2"
        },
        {
            "bufferView" : 17,
            "componentType" : 5123,
            "count" : 720,
            "type" : "SCALAR"
        },
        {
            "bufferView" : 19,
            "componentType" : 5126,
            "count" : 989,
            "max" : [
                32.90000534057617,
                21.000049591064453,
                9.259245872497559
            ],
            "min" : [
                -32.8687858581543,
                4.38690185546875e-05,
                -8.276116371154785
            ],
            "type" : "VEC3"
        },
        {
            "bufferView" : 20,
            "componentType" : 5126,
            "count" : 989,
            "type" : "VEC3"
        },
        {
            "bufferView" : 21,
            "componentType" : 5126,
            "count" : 989,
            "type" : "VEC2"
        },
        {
            "bufferView" : 22,
            "componentType" : 5123,
            "count" : 1116,
            "type" : "SCALAR"
        },
        {
            "bufferView" : 24,
            "componentType" : 5126,
            "count" : 584,
            "max" : [
                32.96470642089844,
                21.00005340576172,
                12.803144454956055
            ],
            "min" : [
                -32.9334716796875,
                4.291534423828125e-05,
                -2.370755195617676
            ],
            "type" : "VEC3"
        },
        {
            "bufferView" : 25,
            "componentType" : 5126,
            "count" : 584,
            "type" : "VEC3"
        },
        {
            "bufferView" : 26,
            "componentType" : 5126,
            "count" : 584,
            "type" : "VEC2"
        },
        {
            "bufferView" : 27,
            "componentType" : 5123,
            "count" : 672,
            "type" : "SCALAR"
        }
    ],
    "bufferViews" : [
        {
            "buffer" : 0,
            "byteLength" : 624,
            "byteOffset" : 0
        },
        {
            "buffer" : 0,
            "byteLength" : 624,
            "byteOffset" : 624
        },
        {
            "buffer" : 0,
            "byteLength" : 416,
            "byteOffset" : 1248
        },
        {
            "buffer" : 0,
            "byteLength" : 144,
            "byteOffset" : 1664
        },
        {
            "buffer" : 0,
            "byteLength" : 132586,
            "byteOffset" : 1808
        },
        {
            "buffer" : 0,
            "byteLength" : 15948,
            "byteOffset" : 134396
        },
        {
            "buffer" : 0,
            "byteLength" : 15948,
            "byteOffset" : 150344
        },
        {
            "buffer" : 0,
            "byteLength" : 10632,
            "byteOffset" : 166292
        },
        {
            "buffer" : 0,
            "byteLength" : 3912,
            "byteOffset" : 176924
        },
        {
            "buffer" : 0,
            "byteLength" : 37172,
            "byteOffset" : 180836
        },
        {
            "buffer" : 0,
            "byteLength" : 109320,
            "byteOffset" : 218008
        },
        {
            "buffer" : 0,
            "byteLength" : 109320,
            "byteOffset" : 327328
        },
        {
            "buffer" : 0,
            "byteLength" : 72880,
            "byteOffset" : 436648
        },
        {
            "buffer" : 0,
            "byteLength" : 25008,
            "byteOffset" : 509528
        },
        {
            "buffer" : 0,
            "byteLength" : 7068,
            "byteOffset" : 534536
        },
        {
            "buffer" : 0,
            "byteLength" : 7068,
            "byteOffset" : 541604
        },
        {
            "buffer" : 0,
            "byteLength" : 4712,
            "byteOffset" : 548672
        },
        {
            "buffer" : 0,
            "byteLength" : 1440,
            "byteOffset" : 553384
        },
        {
            "buffer" : 0,
            "byteLength" : 126772,
            "byteOffset" : 554824
        },
        {
            "buffer" : 0,
            "byteLength" : 11868,
            "byteOffset" : 681596
        },
        {
            "buffer" : 0,
            "byteLength" : 11868,
            "byteOffset" : 693464
        },
        {
            "buffer" : 0,
            "byteLength" : 7912,
            "byteOffset" : 705332
        },
        {
            "buffer" : 0,
            "byteLength" : 2232,
            "byteOffset" : 713244
        },
        {
            "buffer" : 0,
            "byteLength" : 138495,
            "byteOffset" : 715476
        },
        {
            "buffer" : 0,
            "byteLength" : 7008,
            "byteOffset" : 853972
        },
        {
            "buffer" : 0,
            "byteLength" : 7008,
            "byteOffset" : 860980
        },
        {
            "buffer" : 0,
            "byteLength" : 4672,
            "byteOffset" : 867988
        },
        {
            "buffer" : 0,
            "byteLength" : 1344,
            "byteOffset" : 872660
        }
    ],
    "samplers" : [
        {
            "magFilter" : 9729,
            "minFilter" : 9987
        }
    ],
    "buffers" : [
        {
            "byteLength" : 874004,
            "uri" : "data:application/octet-stream;base64,"
        }
    ]
}
